<svg width="19.500000" height="16.500000" viewBox="0 0 19.5 16.5" fill="none" xmlns="http://www.w3.org/2000/svg" xmlns:xlink="http://www.w3.org/1999/xlink">
	<desc>
			Created with Pixso.
	</desc>
	<defs/>
	<path id="Vector (Stroke)" d="M10.71 0.21C11.01 -0.08 11.48 -0.08 11.78 0.21L19.28 7.71C19.42 7.86 19.5 8.05 19.5 8.25C19.5 8.44 19.42 8.63 19.28 8.78L11.78 16.28C11.48 16.57 11.01 16.57 10.71 16.28C10.42 15.98 10.42 15.51 10.71 15.21L16.93 9L0.75 9C0.33 9 0 8.66 0 8.25C0 7.83 0.33 7.5 0.75 7.5L16.93 7.5L10.71 1.28C10.42 0.98 10.42 0.51 10.71 0.21Z" fill="#FFFFFF" fill-opacity="1.000000" fill-rule="evenodd"/>
</svg>
