<svg width="21.110901" height="12.963501" viewBox="0 0 21.1109 12.9635" fill="none" xmlns="http://www.w3.org/2000/svg" xmlns:xlink="http://www.w3.org/1999/xlink">
	<defs/>
	<path id="Vector (Stroke)" d="M13.71 0.48C13.86 0.09 14.3 -0.1 14.68 0.04L20.62 2.33C20.81 2.4 20.96 2.54 21.04 2.72C21.12 2.9 21.13 3.11 21.06 3.29L18.78 9.24C18.63 9.62 18.19 9.82 17.81 9.67C17.42 9.52 17.23 9.09 17.38 8.7L19.01 4.45L17.92 4.93C15.47 6.02 13.6 7.88 12.47 10.1C12.36 10.32 12.16 10.47 11.92 10.51C11.68 10.54 11.44 10.47 11.27 10.3L7.5 6.52L1.28 12.74C0.98 13.03 0.51 13.03 0.21 12.74C-0.08 12.45 -0.08 11.97 0.21 11.68L6.96 4.93C7.11 4.79 7.3 4.71 7.5 4.71C7.69 4.71 7.88 4.79 8.03 4.93L11.63 8.53C12.93 6.41 14.87 4.65 17.31 3.56L18.4 3.08L14.15 1.45C13.76 1.3 13.57 0.86 13.71 0.48Z" fill="#000" fill-opacity="1.000000" fill-rule="evenodd"/>
</svg>
