<svg width="20.800476" height="13.291931" viewBox="0 0 20.8005 13.2919" fill="none" xmlns="http://www.w3.org/2000/svg" xmlns:xlink="http://www.w3.org/1999/xlink">
	<defs/>
	<path id="Vector (Stroke)" d="M0.21 0.21C0.51 -0.08 0.98 -0.08 1.28 0.21L7.5 6.43L11.25 2.68C11.52 2.41 11.94 2.38 12.24 2.61C14.4 4.26 16.05 6.62 16.81 9.45L17.12 10.59L19.4 6.65C19.6 6.29 20.06 6.17 20.42 6.38C20.78 6.58 20.9 7.04 20.69 7.4L17.51 12.91C17.41 13.08 17.25 13.21 17.06 13.26C16.87 13.31 16.66 13.29 16.49 13.19L10.98 10C10.62 9.8 10.5 9.34 10.7 8.98C10.91 8.62 11.37 8.5 11.73 8.71L15.67 10.98L15.36 9.83C14.75 7.56 13.49 5.64 11.83 4.22L8.03 8.03C7.73 8.32 7.26 8.32 6.96 8.03L0.21 1.28C-0.08 0.98 -0.08 0.51 0.21 0.21Z" fill="#000" fill-opacity="1.000000" fill-rule="evenodd"/>
</svg>
