<svg width="19.500000" height="19.500000" viewBox="0 0 19.5 19.5" fill="none" xmlns="http://www.w3.org/2000/svg" xmlns:xlink="http://www.w3.org/1999/xlink">
	<desc>
			Created with Pixso.
	</desc>
	<defs/>
	<path id="Vector" d="M9.75 0.75C10 0.75 10.25 0.76 10.5 0.78C15.11 1.16 18.75 5.03 18.75 9.75C18.75 11.62 18.17 13.37 17.18 14.81C15.95 16.61 14.09 17.95 11.91 18.48C11.22 18.65 10.49 18.75 9.75 18.75C6.17 18.75 3.09 16.66 1.63 13.65C1.06 12.47 0.75 11.14 0.75 9.75C0.75 4.77 4.77 0.75 9.75 0.75ZM11.91 18.48L11.69 17.84C11.43 17.04 10.67 16.5 9.83 16.5C9.35 16.5 8.94 16.15 8.86 15.67L8.79 15.24C8.69 14.67 9.04 14.13 9.59 13.97L10.57 13.69C11 13.56 11.36 13.27 11.56 12.87L11.59 12.8C11.84 12.31 12.34 12 12.89 12C13.28 12 13.65 12.15 13.92 12.42L14.25 12.75L14.87 12.75C15.84 12.75 16.7 13.36 17.01 14.28L17.18 14.81M10.5 0.78L10.5 1.34C10.5 1.68 10.64 1.99 10.9 2.21L11.97 3.1C12.41 3.47 12.5 4.11 12.18 4.59L11.67 5.35C11.4 5.77 10.99 6.08 10.51 6.24L10.37 6.29C9.68 6.52 9.39 7.34 9.8 7.95C10.17 8.51 9.97 9.26 9.37 9.56L6.75 10.87L7.17 11.93C7.35 12.39 7.15 12.92 6.71 13.14C6.3 13.34 5.79 13.23 5.52 12.86L4.84 11.95C4.34 11.28 3.3 11.37 2.93 12.12L2.25 13.5L1.63 13.65M13.49 6.75C13.49 7.64 13.1 8.45 12.48 9" stroke="#000000" stroke-opacity="1.000000" stroke-width="1.500000" stroke-linejoin="round" stroke-linecap="round"/>
</svg>
