<svg width="20.999939" height="19.500000" viewBox="0 0 20.9999 19.5" fill="none" xmlns="http://www.w3.org/2000/svg" xmlns:xlink="http://www.w3.org/1999/xlink">
	<desc>
			Created with Pixso.
	</desc>
	<defs/>
	<path id="Vector" d="M7.12 7.5C5.26 7.5 3.75 5.98 3.75 4.12C3.75 2.26 5.26 0.75 7.12 0.75C8.98 0.75 10.5 2.26 10.5 4.12C10.5 5.98 8.98 7.5 7.12 7.5ZM16.12 9C14.67 9 13.5 7.82 13.5 6.37C13.5 4.92 14.67 3.75 16.12 3.75C17.57 3.75 18.75 4.92 18.75 6.37C18.75 7.82 17.57 9 16.12 9ZM0.75 16.87C0.75 13.35 3.6 10.5 7.12 10.5C9.53 10.5 11.62 11.83 12.71 13.8C13.21 14.71 13.5 15.76 13.5 16.87L13.5 16.87C13.5 16.91 13.49 16.94 13.49 16.98C11.63 18.1 9.45 18.75 7.12 18.75C4.79 18.75 2.61 18.1 0.75 16.98C0.75 16.94 0.75 16.91 0.75 16.87ZM12.71 13.8C13.45 12.71 14.7 12 16.12 12C18.4 12 20.24 13.84 20.24 16.12C20.24 16.18 20.24 16.24 20.24 16.29C19 16.9 17.6 17.25 16.12 17.25C15.21 17.25 14.33 17.12 13.5 16.87" stroke="#1A1A1A" stroke-opacity="1.000000" stroke-width="1.500000" stroke-linejoin="round"/>
</svg>
