<svg width="19.500000" height="19.500000" viewBox="0 0 19.5 19.5" fill="none" xmlns="http://www.w3.org/2000/svg" xmlns:xlink="http://www.w3.org/1999/xlink">
	<desc>
			Created with Pixso.
	</desc>
	<defs/>
	<path id="Vector" d="M9.75 13.5C7.67 13.5 6 11.82 6 9.75C6 7.67 7.67 6 9.75 6C11.82 6 13.5 7.67 13.5 9.75C13.5 11.82 11.82 13.5 9.75 13.5ZM9.75 0.75L9.75 3M16.11 3.38L14.52 4.97M18.75 9.75L16.5 9.75M16.11 16.11L14.52 14.52M9.75 16.5L9.75 18.75M4.97 14.52L3.38 16.11M3 9.75L0.75 9.75M4.97 4.97L3.38 3.38" stroke="#ffff" stroke-opacity="1.000000" stroke-width="1.500000" stroke-linejoin="round" stroke-linecap="round"/>
</svg>
