<svg width="16.500000" height="16.500000" viewBox="0 0 16.5 16.5" fill="none" xmlns="http://www.w3.org/2000/svg" xmlns:xlink="http://www.w3.org/1999/xlink">
	<desc>
			Created with Pixso.
	</desc>
	<defs/>
	<path id="Vector 431 (Stroke)" d="M1.5 2.56L1.5 12C1.5 12.41 1.16 12.75 0.75 12.75C0.33 12.75 0 12.41 0 12L0 0.75C0 0.55 0.07 0.36 0.21 0.21C0.36 0.07 0.55 0 0.75 0L12 0C12.41 0 12.75 0.33 12.75 0.75C12.75 1.16 12.41 1.5 12 1.5L2.56 1.5L16.28 15.21C16.57 15.51 16.57 15.98 16.28 16.28C15.98 16.57 15.51 16.57 15.21 16.28L1.5 2.56Z" fill="#FF8D4C" fill-opacity="1.000000" fill-rule="evenodd"/>
</svg>
