<svg width="21.000000" height="16.500000" viewBox="0 0 21 16.5" fill="none" xmlns="http://www.w3.org/2000/svg" xmlns:xlink="http://www.w3.org/1999/xlink">
	<desc>
			Created with Pixso.
	</desc>
	<defs/>
	<path id="Vector" d="M0.75 11.25C0.75 9.25 2.04 7.56 3.84 6.97C3.78 6.65 3.75 6.33 3.75 6C3.75 3.1 6.1 0.75 9 0.75C11.43 0.75 13.47 2.4 14.07 4.64C14.36 4.55 14.67 4.5 15 4.5C16.65 4.5 18 5.84 18 7.5C18 7.84 17.94 8.18 17.83 8.49C19.24 9.03 20.25 10.39 20.25 12C20.25 14.07 18.57 15.75 16.5 15.75L5.25 15.75C2.76 15.75 0.75 13.73 0.75 11.25ZM10.5 12.75L10.5 6M13.5 9L10.5 6L7.5 9" stroke="#1A1A1A" stroke-opacity="1.000000" stroke-width="1.500000" stroke-linejoin="round" stroke-linecap="round"/>
</svg>
